<svg xmlns="http://www.w3.org/2000/svg" xmlns:xlink="http://www.w3.org/1999/xlink" width="1080" zoomAndPan="magnify" viewBox="0 0 810 809.999993" height="1080" preserveAspectRatio="xMidYMid meet" version="1.0"><defs><clipPath id="8a04fc8d38"><path d="M 124 28.855469 L 312 28.855469 L 312 92 L 124 92 Z M 124 28.855469 " clip-rule="nonzero"/></clipPath><clipPath id="75ef7330ba"><path d="M 373 718 L 437 718 L 437 781.105469 L 373 781.105469 Z M 373 718 " clip-rule="nonzero"/></clipPath><clipPath id="932a9a02fb"><path d="M 498 28.855469 L 686 28.855469 L 686 92 L 498 92 Z M 498 28.855469 " clip-rule="nonzero"/></clipPath><clipPath id="85a29c094f"><path d="M 373 718 L 437 718 L 437 781.105469 L 373 781.105469 Z M 373 718 " clip-rule="nonzero"/></clipPath></defs><path fill="#e34853" d="M 685.308594 469.664062 L 623.019531 469.664062 L 623.019531 531.953125 L 560.726562 531.953125 L 560.726562 594.242188 L 498.4375 594.242188 L 498.4375 656.53125 L 436.144531 656.53125 L 436.144531 718.816406 L 373.855469 718.816406 L 373.855469 656.53125 L 311.5625 656.53125 L 311.5625 594.242188 L 249.273438 594.242188 L 249.273438 531.953125 L 186.980469 531.953125 L 186.980469 469.664062 L 124.691406 469.664062 L 124.691406 407.375 L 62.398438 407.375 L 62.398438 153.433594 L 124.691406 153.433594 L 124.691406 91.144531 L 311.5625 91.144531 L 311.5625 153.433594 L 498.4375 153.433594 L 498.4375 91.144531 L 685.308594 91.144531 L 685.308594 153.433594 L 747.601562 153.433594 L 747.601562 407.375 L 685.308594 407.375 Z M 685.308594 469.664062 " fill-opacity="1" fill-rule="nonzero"/><path fill="#ffb0b2" d="M 191.773438 153.433594 L 254.0625 153.433594 L 254.0625 215.722656 L 191.773438 215.722656 Z M 191.773438 153.433594 " fill-opacity="1" fill-rule="nonzero"/><path fill="#ffb0b2" d="M 129.480469 215.722656 L 191.773438 215.722656 L 191.773438 278.007812 L 129.480469 278.007812 Z M 129.480469 215.722656 " fill-opacity="1" fill-rule="nonzero"/><g clip-path="url(#8a04fc8d38)"><path fill="#5d2022" d="M 124.691406 28.855469 L 311.5625 28.855469 L 311.5625 91.144531 L 124.691406 91.144531 Z M 124.691406 28.855469 " fill-opacity="1" fill-rule="nonzero"/></g><path fill="#5d2022" d="M 311.5625 91.144531 L 373.855469 91.144531 L 373.855469 153.433594 L 311.5625 153.433594 Z M 311.5625 91.144531 " fill-opacity="1" fill-rule="nonzero"/><path fill="#5d2022" d="M 62.398438 91.144531 L 124.691406 91.144531 L 124.691406 153.433594 L 62.398438 153.433594 Z M 62.398438 91.144531 " fill-opacity="1" fill-rule="nonzero"/><path fill="#5d2022" d="M 62.398438 407.375 L 124.691406 407.375 L 124.691406 469.664062 L 62.398438 469.664062 Z M 62.398438 407.375 " fill-opacity="1" fill-rule="nonzero"/><path fill="#5d2022" d="M 186.980469 531.953125 L 249.273438 531.953125 L 249.273438 594.242188 L 186.980469 594.242188 Z M 186.980469 531.953125 " fill-opacity="1" fill-rule="nonzero"/><path fill="#5d2022" d="M 311.5625 656.53125 L 373.855469 656.53125 L 373.855469 718.816406 L 311.5625 718.816406 Z M 311.5625 656.53125 " fill-opacity="1" fill-rule="nonzero"/><path fill="#5d2022" d="M 124.691406 469.664062 L 186.980469 469.664062 L 186.980469 531.953125 L 124.691406 531.953125 Z M 124.691406 469.664062 " fill-opacity="1" fill-rule="nonzero"/><path fill="#5d2022" d="M 249.273438 594.242188 L 311.5625 594.242188 L 311.5625 656.53125 L 249.273438 656.53125 Z M 249.273438 594.242188 " fill-opacity="1" fill-rule="nonzero"/><g clip-path="url(#75ef7330ba)"><path fill="#5d2022" d="M 373.855469 718.816406 L 436.144531 718.816406 L 436.144531 781.105469 L 373.855469 781.105469 Z M 373.855469 718.816406 " fill-opacity="1" fill-rule="nonzero"/></g><path fill="#5d2022" d="M 0.109375 153.433594 L 62.398438 153.433594 L 62.398438 407.375 L 0.109375 407.375 Z M 0.109375 153.433594 " fill-opacity="1" fill-rule="nonzero"/><path fill="#5d2022" d="M 373.855469 153.433594 L 436.144531 153.433594 L 436.144531 215.722656 L 373.855469 215.722656 Z M 373.855469 153.433594 " fill-opacity="1" fill-rule="nonzero"/><path fill="#5d2022" d="M 436.144531 91.144531 L 498.4375 91.144531 L 498.4375 153.433594 L 436.144531 153.433594 Z M 436.144531 91.144531 " fill-opacity="1" fill-rule="nonzero"/><g clip-path="url(#932a9a02fb)"><path fill="#5d2022" d="M 685.308594 28.855469 L 498.4375 28.855469 L 498.4375 91.144531 L 685.308594 91.144531 Z M 685.308594 28.855469 " fill-opacity="1" fill-rule="nonzero"/></g><path fill="#5d2022" d="M 747.601562 91.144531 L 685.308594 91.144531 L 685.308594 153.433594 L 747.601562 153.433594 Z M 747.601562 91.144531 " fill-opacity="1" fill-rule="nonzero"/><path fill="#5d2022" d="M 747.601562 407.375 L 685.308594 407.375 L 685.308594 469.664062 L 747.601562 469.664062 Z M 747.601562 407.375 " fill-opacity="1" fill-rule="nonzero"/><path fill="#5d2022" d="M 623.019531 531.953125 L 560.726562 531.953125 L 560.726562 594.242188 L 623.019531 594.242188 Z M 623.019531 531.953125 " fill-opacity="1" fill-rule="nonzero"/><path fill="#5d2022" d="M 498.4375 656.53125 L 436.144531 656.53125 L 436.144531 718.816406 L 498.4375 718.816406 Z M 498.4375 656.53125 " fill-opacity="1" fill-rule="nonzero"/><path fill="#5d2022" d="M 685.308594 469.664062 L 623.019531 469.664062 L 623.019531 531.953125 L 685.308594 531.953125 Z M 685.308594 469.664062 " fill-opacity="1" fill-rule="nonzero"/><path fill="#5d2022" d="M 560.726562 594.242188 L 498.4375 594.242188 L 498.4375 656.53125 L 560.726562 656.53125 Z M 560.726562 594.242188 " fill-opacity="1" fill-rule="nonzero"/><g clip-path="url(#85a29c094f)"><path fill="#5d2022" d="M 436.144531 718.816406 L 373.855469 718.816406 L 373.855469 781.105469 L 436.144531 781.105469 Z M 436.144531 718.816406 " fill-opacity="1" fill-rule="nonzero"/></g><path fill="#5d2022" d="M 809.890625 153.433594 L 747.601562 153.433594 L 747.601562 407.375 L 809.890625 407.375 Z M 809.890625 153.433594 " fill-opacity="1" fill-rule="nonzero"/></svg>