<svg xmlns="http://www.w3.org/2000/svg" xmlns:xlink="http://www.w3.org/1999/xlink" width="1080" zoomAndPan="magnify" viewBox="0 0 810 809.999993" height="1080" preserveAspectRatio="xMidYMid meet" version="1.0"><defs><clipPath id="f14911730b"><path d="M 0 12 L 810 12 L 810 804 L 0 804 Z M 0 12 " clip-rule="nonzero"/></clipPath><clipPath id="9a7ebfa858"><path d="M -49.054688 696.574219 L 115.363281 -30.570312 L 842.507812 133.847656 L 678.089844 860.992188 Z M -49.054688 696.574219 " clip-rule="nonzero"/></clipPath><clipPath id="05bf697c9e"><path d="M -49.054688 696.574219 L 115.363281 -30.570312 L 842.507812 133.847656 L 678.089844 860.992188 Z M -49.054688 696.574219 " clip-rule="nonzero"/></clipPath><clipPath id="12d5fd423e"><path d="M -49.054688 696.574219 L 115.363281 -30.570312 L 842.507812 133.847656 L 678.089844 860.992188 Z M -49.054688 696.574219 " clip-rule="nonzero"/></clipPath><clipPath id="6116932bf5"><path d="M 7 32 L 801 32 L 801 784 L 7 784 Z M 7 32 " clip-rule="nonzero"/></clipPath><clipPath id="5c3d19f11f"><path d="M -49.054688 696.574219 L 115.363281 -30.570312 L 842.507812 133.847656 L 678.089844 860.992188 Z M -49.054688 696.574219 " clip-rule="nonzero"/></clipPath><clipPath id="3ff2bc62bb"><path d="M -49.054688 696.574219 L 115.363281 -30.570312 L 842.507812 133.847656 L 678.089844 860.992188 Z M -49.054688 696.574219 " clip-rule="nonzero"/></clipPath><clipPath id="905048ab71"><path d="M -49.054688 696.574219 L 115.363281 -30.570312 L 842.507812 133.847656 L 678.089844 860.992188 Z M -49.054688 696.574219 " clip-rule="nonzero"/></clipPath><clipPath id="ac05602419"><path d="M 77 95 L 731 95 L 731 721 L 77 721 Z M 77 95 " clip-rule="nonzero"/></clipPath><clipPath id="2a369fb5f3"><path d="M -49.054688 696.574219 L 115.363281 -30.570312 L 842.507812 133.847656 L 678.089844 860.992188 Z M -49.054688 696.574219 " clip-rule="nonzero"/></clipPath><clipPath id="f91b81dcf9"><path d="M -49.054688 696.574219 L 115.363281 -30.570312 L 842.507812 133.847656 L 678.089844 860.992188 Z M -49.054688 696.574219 " clip-rule="nonzero"/></clipPath><clipPath id="2a0221290d"><path d="M -49.054688 696.574219 L 115.363281 -30.570312 L 842.507812 133.847656 L 678.089844 860.992188 Z M -49.054688 696.574219 " clip-rule="nonzero"/></clipPath><clipPath id="9365e6c10d"><path d="M 273 267 L 394 267 L 394 535 L 273 535 Z M 273 267 " clip-rule="nonzero"/></clipPath><clipPath id="99e2bd5726"><path d="M -49.054688 696.574219 L 115.363281 -30.570312 L 842.507812 133.847656 L 678.089844 860.992188 Z M -49.054688 696.574219 " clip-rule="nonzero"/></clipPath><clipPath id="0f509cdf4e"><path d="M -49.054688 696.574219 L 115.363281 -30.570312 L 842.507812 133.847656 L 678.089844 860.992188 Z M -49.054688 696.574219 " clip-rule="nonzero"/></clipPath><clipPath id="51f3735a0b"><path d="M -49.054688 696.574219 L 115.363281 -30.570312 L 842.507812 133.847656 L 678.089844 860.992188 Z M -49.054688 696.574219 " clip-rule="nonzero"/></clipPath></defs><g clip-path="url(#f14911730b)"><g clip-path="url(#9a7ebfa858)"><g clip-path="url(#05bf697c9e)"><g clip-path="url(#12d5fd423e)"><path fill="#ffffff" d="M 770.789062 451.027344 L 707.671875 436.757812 L 700.535156 468.3125 L 574.449219 439.804688 L 567.742188 469.472656 L 693.828125 497.980469 L 686.691406 529.539062 L 749.808594 543.8125 L 699.496094 766.316406 L 636.382812 752.046875 L 629.246094 783.601562 L 532.824219 761.800781 L 539.960938 730.242188 L 510.292969 723.535156 L 496.023438 786.652344 L 432.90625 772.378906 L 425.769531 803.9375 L 282.960938 771.644531 L 140.148438 739.355469 L 147.285156 707.796875 L 84.3125 693.558594 L 105.542969 598.996094 L 42.574219 584.757812 L 49.707031 553.199219 L -13.40625 538.929688 L 22.664062 379.394531 L 85.78125 393.664062 L 106.761719 300.882812 L 43.644531 286.609375 L 79.71875 127.074219 L 142.835938 141.347656 L 149.96875 109.789062 L 212.941406 124.027344 L 234.460938 29.53125 L 297.429688 43.769531 L 304.566406 12.210938 L 590.1875 76.792969 L 583.054688 108.351562 L 646.167969 122.625 L 631.898438 185.738281 L 661.566406 192.449219 L 668.699219 160.890625 L 765.121094 182.691406 L 757.984375 214.25 L 821.101562 228.523438 Z M 770.789062 451.027344 " fill-opacity="1" fill-rule="nonzero"/></g></g></g></g><g clip-path="url(#6116932bf5)"><g clip-path="url(#5c3d19f11f)"><g clip-path="url(#3ff2bc62bb)"><g clip-path="url(#905048ab71)"><path fill="#000000" d="M 112.996094 351.054688 L 98.722656 414.171875 L 35.609375 399.898438 L 21.335938 463.015625 L 14.234375 494.429688 L 7.097656 525.984375 L 70.214844 540.257812 L 63.078125 571.816406 L 126.050781 586.054688 L 118.914062 617.613281 L 111.8125 649.023438 L 104.675781 680.582031 L 167.789062 694.855469 L 160.65625 726.410156 L 223.769531 740.683594 L 286.742188 754.921875 L 349.859375 769.191406 L 412.828125 783.433594 L 419.964844 751.875 L 483.082031 766.144531 L 490.214844 734.585938 L 497.351562 703.03125 L 560.46875 717.300781 L 553.332031 748.859375 L 616.300781 763.097656 L 623.4375 731.539062 L 686.554688 745.8125 L 693.65625 714.398438 L 707.929688 651.28125 L 715.0625 619.722656 L 722.199219 588.167969 L 729.304688 556.753906 L 666.1875 542.480469 L 673.324219 510.925781 L 610.207031 496.652344 L 547.234375 482.414062 L 561.507812 419.296875 L 624.476562 433.535156 L 687.59375 447.808594 L 694.730469 416.25 L 757.84375 430.523438 L 764.949219 399.109375 L 772.085938 367.550781 L 779.21875 335.992188 L 793.492188 272.875 L 800.59375 241.464844 L 737.476562 227.191406 L 744.613281 195.636719 L 681.644531 181.394531 L 674.507812 212.953125 L 611.390625 198.683594 L 625.664062 135.566406 L 562.546875 121.296875 L 569.683594 89.738281 L 506.710938 75.5 L 443.597656 61.226562 L 380.625 46.988281 L 317.507812 32.71875 L 310.375 64.277344 L 247.257812 50.003906 L 240.121094 81.5625 L 233.019531 112.972656 L 225.882812 144.53125 L 162.914062 130.292969 L 155.777344 161.851562 L 92.660156 147.582031 L 85.527344 179.136719 L 78.390625 210.695312 L 71.285156 242.109375 L 64.152344 273.667969 L 127.265625 287.9375 L 120.132812 319.496094 Z M 112.996094 351.054688 " fill-opacity="1" fill-rule="nonzero"/></g></g></g></g><g clip-path="url(#ac05602419)"><g clip-path="url(#2a369fb5f3)"><g clip-path="url(#f91b81dcf9)"><g clip-path="url(#2a0221290d)"><path fill="#7304d7" d="M 204.476562 239.207031 L 197.339844 270.765625 L 134.371094 256.527344 L 141.503906 224.96875 L 148.640625 193.410156 L 211.757812 207.679688 Z M 296.136719 127.246094 L 289 158.804688 L 352.117188 173.074219 L 337.84375 236.191406 L 274.726562 221.921875 L 267.59375 253.476562 L 260.457031 285.035156 L 197.339844 270.765625 L 190.203125 302.324219 L 183.070312 333.878906 L 175.933594 365.4375 L 176.078125 365.472656 L 175.933594 365.4375 L 161.660156 428.554688 L 154.527344 460.113281 L 217.640625 474.382812 L 210.507812 505.941406 L 203.371094 537.5 L 266.488281 551.773438 L 259.351562 583.328125 L 252.214844 614.886719 L 189.097656 600.617188 L 181.964844 632.175781 L 174.828125 663.730469 L 237.945312 678.003906 L 301.058594 692.273438 L 364.175781 706.546875 L 427 720.753906 L 441.273438 657.636719 L 378.300781 643.398438 L 392.574219 580.28125 L 455.542969 594.519531 L 518.660156 608.792969 L 581.777344 623.0625 L 567.503906 686.179688 L 630.621094 700.449219 L 637.757812 668.890625 L 644.890625 637.335938 L 659.164062 574.21875 L 596.046875 559.945312 L 532.929688 545.675781 L 469.816406 531.402344 L 476.953125 499.847656 L 484.085938 468.289062 L 498.359375 405.171875 L 505.492188 373.613281 L 512.628906 342.054688 L 575.746094 356.328125 L 638.863281 370.597656 L 701.976562 384.871094 L 723.386719 290.195312 L 730.519531 258.636719 L 667.40625 244.367188 L 653.132812 307.484375 L 590.015625 293.210938 L 526.902344 278.941406 L 463.929688 264.703125 L 478.203125 201.585938 L 541.171875 215.824219 L 555.445312 152.707031 L 492.472656 138.46875 L 429.359375 124.199219 L 366.242188 109.925781 L 303.125 95.65625 Z M 84.453125 477.285156 L 77.316406 508.84375 L 140.433594 523.117188 L 147.570312 491.558594 L 154.703125 460 L 91.589844 445.730469 Z M 84.453125 477.285156 " fill-opacity="1" fill-rule="nonzero"/></g></g></g></g><g clip-path="url(#9365e6c10d)"><g clip-path="url(#99e2bd5726)"><g clip-path="url(#0f509cdf4e)"><g clip-path="url(#51f3735a0b)"><path fill="#fb038e" d="M 330.707031 267.75 L 393.824219 282.019531 L 386.6875 313.578125 L 379.554688 345.136719 L 316.4375 330.867188 L 323.574219 299.308594 Z M 280.792969 488.511719 L 273.65625 520.066406 L 336.773438 534.339844 L 343.90625 502.78125 L 351.042969 471.222656 L 287.925781 456.953125 Z M 280.792969 488.511719 " fill-opacity="1" fill-rule="nonzero"/></g></g></g></g></svg>