<svg xmlns="http://www.w3.org/2000/svg" viewBox="0 0 16 16" width="256" height="256" shape-rendering="crispEdges">
  <rect width="16" height="16" fill="none"/>

  <!-- Colores -->
  <!-- outline #5b3b00 | mid #f2b705 | dark #c88600 | light #ffd86b | shine #fff1b3 -->

  <!-- OUTLINE -->
  <g fill="#5b3b00">
    <rect x="6" y="1" width="4" height="1"/>
    <rect x="4" y="2" width="2" height="1"/><rect x="10" y="2" width="2" height="1"/>
    <rect x="3" y="3" width="1" height="1"/><rect x="12" y="3" width="1" height="1"/>
    <rect x="2" y="4" width="1" height="1"/><rect x="13" y="4" width="1" height="1"/>
    <rect x="2" y="5" width="1" height="1"/><rect x="13" y="5" width="1" height="1"/>
    <rect x="1" y="6" width="1" height="1"/><rect x="14" y="6" width="1" height="1"/>
    <rect x="1" y="7" width="1" height="1"/><rect x="14" y="7" width="1" height="1"/>
    <rect x="1" y="8" width="1" height="1"/><rect x="14" y="8" width="1" height="1"/>
    <rect x="1" y="9" width="1" height="1"/><rect x="14" y="9" width="1" height="1"/>
    <rect x="2" y="10" width="1" height="1"/><rect x="13" y="10" width="1" height="1"/>
    <rect x="2" y="11" width="1" height="1"/><rect x="13" y="11" width="1" height="1"/>
    <rect x="3" y="12" width="1" height="1"/><rect x="12" y="12" width="1" height="1"/>
    <rect x="4" y="13" width="2" height="1"/><rect x="10" y="13" width="2" height="1"/>
    <rect x="6" y="14" width="4" height="1"/>
  </g>

  <!-- BASE (MID) -->
  <g fill="#f2b705">
    <rect x="6" y="2" width="4" height="1"/>
    <rect x="4" y="3" width="8" height="1"/>
    <rect x="3" y="4" width="10" height="1"/>
    <rect x="3" y="5" width="10" height="1"/>
    <rect x="2" y="6" width="12" height="1"/>
    <rect x="2" y="7" width="12" height="1"/>
    <rect x="2" y="8" width="12" height="1"/>
    <rect x="2" y="9" width="12" height="1"/>
    <rect x="3" y="10" width="10" height="1"/>
    <rect x="3" y="11" width="10" height="1"/>
    <rect x="4" y="12" width="8" height="1"/>
    <rect x="6" y="13" width="4" height="1"/>
  </g>

  <!-- DARK SHADING -->
  <g fill="#c88600">
    <rect x="5" y="3" width="1" height="1"/>
    <rect x="4" y="4" width="1" height="1"/>
    <rect x="4" y="5" width="1" height="1"/>
    <rect x="3" y="6" width="1" height="1"/>
    <rect x="3" y="7" width="1" height="1"/>
    <rect x="3" y="8" width="1" height="1"/>
    <rect x="3" y="9" width="1" height="1"/>
    <rect x="4" y="10" width="1" height="1"/>
    <rect x="4" y="11" width="1" height="1"/>
    <rect x="5" y="12" width="1" height="1"/>
    <rect x="6" y="13" width="1" height="1"/>
    <rect x="9" y="12" width="1" height="1"/>
    <rect x="10" y="11" width="1" height="1"/>
  </g>

  <!-- LIGHT HIGHLIGHT -->
  <g fill="#ffd86b">
    <rect x="10" y="3" width="1" height="1"/>
    <rect x="11" y="4" width="1" height="1"/>
    <rect x="11" y="5" width="1" height="1"/>
    <rect x="12" y="6" width="1" height="1"/>
    <rect x="12" y="7" width="1" height="1"/>
    <rect x="12" y="8" width="1" height="1"/>
    <rect x="12" y="9" width="1" height="1"/>
    <rect x="11" y="10" width="1" height="1"/>
    <rect x="11" y="11" width="1" height="1"/>
    <rect x="10" y="12" width="1" height="1"/>
    <rect x="9" y="13" width="1" height="1"/>
  </g>

  <!-- SHINE -->
  <g fill="#fff1b3">
    <rect x="8" y="4" width="1" height="8"/>
    <rect x="7" y="5" width="3" height="1"/>
    <rect x="7" y="5" width="1" height="1"/>
    <rect x="6" y="6" width="1" height="1"/>
    <rect x="5" y="7" width="1" height="1"/>
    <rect x="5" y="8" width="1" height="1"/>
    <rect x="6" y="9" width="1" height="1"/>
    <rect x="7" y="10" width="3" height="1"/>
  </g>




</svg>